<svg id="THIS_copy_2" data-name="THIS copy 2" xmlns="http://www.w3.org/2000/svg" viewBox="0 0 2000 2000"><defs><style>.cls-1,.cls-2{fill:#fff;}.cls-1{stroke:#fff;stroke-width:7px;}.cls-1,.cls-3{stroke-miterlimit:10;}.cls-3{fill:none;stroke:#000;stroke-width:15px;}.cls-4{font-size:130.99px;font-family:HamburgHandLight, Hamburg Hand;}.cls-5{letter-spacing:-0.03em;}</style></defs><title>Artboard 1PointyText</title><polygon points="488.03 796.45 1505.03 796.45 1505.03 808.45 1000.03 1335.45 488.03 796.45"/><polygon class="cls-1" points="667.5 846.88 614.3 846.99 998.67 1251.57 1125.35 1119.99 877.43 847.03 825.42 847.03 1079.59 1117.01 1001.98 1197.88 667.5 846.88"/><path d="M1000,1324.15l494.52-518.7h-989ZM1432.35,827,1178.86,1092.9,938.21,827Zm-653.22,0H886.29l266.43,293.36L998.58,1280.5,567.81,827.08l108.24-.22,326,342.08,50-52.06Z"/><polygon points="1268.78 889.53 1099.97 889.53 1181.91 980.64 1268.78 889.53"/><path class="cls-1" d="M1385.65,847H983.29l196,216.49Zm-70.16,22.5-134,140.54L1055.09,869.53Z"/><path class="cls-2" d="M676.05,826.86l-108.24.22L998.58,1280.5l154.14-160.11L886.29,827H779.13L1052,1116.88l-50,52.06ZM825.42,847h52l247.92,273L998.67,1251.57,614.3,847l53.2-.11,334.48,351,77.61-80.87Z"/><path class="cls-2" d="M1432.35,827H938.21l240.65,265.87Zm-46.7,20-206.41,216.49L983.29,847Z"/><path class="cls-2" d="M1315.49,869.53h-260.4l126.39,140.54Zm-46.71,20-86.87,91.11L1100,889.53Z"/><path d="M1512,790.45H488a7.51,7.51,0,0,0-5.43,12.68l512,537.06a7.49,7.49,0,0,0,10.86,0l512-537.06a7.51,7.51,0,0,0-5.43-12.68Zm-512,533.7L505.48,805.45h989Z"/><polygon class="cls-3" points="487.97 797.95 1512.03 797.95 1000 1335.02 487.97 797.95"/><text class="cls-4" transform="translate(567 768.7)">UNITED <tspan class="cls-5" x="571.78" y="0">DA</tspan><tspan x="759.89" y="0">O</tspan></text></svg>