<svg id="THIS_copy" data-name="THIS copy" xmlns="http://www.w3.org/2000/svg" viewBox="0 0 2000 2000"><defs><style>.cls-1,.cls-2{fill:#fff;}.cls-1{stroke:#fff;stroke-miterlimit:10;stroke-width:7px;}</style></defs><title>Artboard 1RoundNoText</title><polygon points="1511.97 729.97 494.97 729.97 494.97 741.97 999.97 1268.97 1511.97 729.97"/><polygon class="cls-1" points="1332.5 780.39 1385.7 780.5 1001.33 1185.08 874.65 1053.51 1122.57 780.55 1174.58 780.55 920.41 1050.53 998.02 1131.39 1332.5 780.39"/><path d="M1494.52,739h-989L1000,1257.66Zm-432.73,21.58L821.14,1026.42,567.65,760.55ZM948,1050.39l50,52.07,326-342.08,108.24.22L1001.42,1214,847.28,1053.91l266.43-293.36h107.16Z"/><polygon points="731.22 823.05 900.03 823.05 818.09 914.15 731.22 823.05"/><path class="cls-1" d="M820.76,997l196-216.49H614.35Zm124.15-194L818.52,943.58l-134-140.53Z"/><path class="cls-2" d="M998,1102.46l-50-52.07,272.86-289.84H1113.71L847.28,1053.91,1001.42,1214,1432.19,760.6,1324,760.38Zm-77.56-51.93L998,1131.39l334.48-351,53.2.11-384.37,404.58L874.65,1053.51l247.92-273h52Z"/><path class="cls-2" d="M821.14,1026.42l240.65-265.87H567.65Zm195.57-245.87L820.76,997,614.35,780.55Z"/><path class="cls-2" d="M818.52,943.58,944.91,803.05H684.51ZM900,823.05l-81.94,91.1-86.87-91.1Z"/><path d="M481.08,728.51a7.5,7.5,0,0,0,1.46,8.13l512,537.07a7.51,7.51,0,0,0,10.86,0l512-537.07A7.5,7.5,0,0,0,1512,724H488A7.5,7.5,0,0,0,481.08,728.51ZM505.48,739h989L1000,1257.66Z"/></svg>