<svg id="THIS_copy_2" data-name="THIS copy 2" xmlns="http://www.w3.org/2000/svg" viewBox="0 0 2000 2000"><defs><style>.cls-1,.cls-2{fill:#fff;}.cls-1{stroke:#fff;stroke-width:7px;}.cls-1,.cls-3{stroke-miterlimit:10;}.cls-3{fill:none;stroke:#000;stroke-width:15px;}</style></defs><title>Artboard 1PointyNoText</title><polygon points="488.03 729.97 1505.03 729.97 1505.03 741.97 1000.03 1268.97 488.03 729.97"/><polygon class="cls-1" points="667.5 780.39 614.3 780.5 998.67 1185.08 1125.35 1053.51 877.43 780.55 825.42 780.55 1079.59 1050.53 1001.98 1131.39 667.5 780.39"/><path d="M1000,1257.66,1494.52,739h-989Zm432.35-497.11-253.49,265.87L938.21,760.55Zm-653.22,0H886.29l266.43,293.36L998.58,1214,567.81,760.6l108.24-.22,326,342.08,50-52.07Z"/><polygon points="1268.78 823.05 1099.97 823.05 1181.91 914.15 1268.78 823.05"/><path class="cls-1" d="M1385.65,780.55H983.29l196,216.49Zm-70.16,22.5-134,140.53L1055.09,803.05Z"/><path class="cls-2" d="M676.05,760.38l-108.24.22L998.58,1214l154.14-160.11L886.29,760.55H779.13L1052,1050.39l-50,52.07Zm149.37,20.17h52l247.92,273L998.67,1185.08,614.3,780.5l53.2-.11,334.48,351,77.61-80.86Z"/><path class="cls-2" d="M1432.35,760.55H938.21l240.65,265.87Zm-46.7,20L1179.24,997l-196-216.49Z"/><path class="cls-2" d="M1315.49,803.05h-260.4l126.39,140.53Zm-46.71,20-86.87,91.1L1100,823.05Z"/><path d="M1512,724H488a7.5,7.5,0,0,0-5.43,12.67l512,537.07a7.51,7.51,0,0,0,10.86,0l512-537.07A7.5,7.5,0,0,0,1512,724Zm-512,533.69L505.48,739h989Z"/><polygon class="cls-3" points="487.97 731.47 1512.03 731.47 1000 1268.53 487.97 731.47"/></svg>