<svg id="THIS_copy" data-name="THIS copy" xmlns="http://www.w3.org/2000/svg" viewBox="0 0 2000 2000"><defs><style>.cls-1,.cls-2{fill:#fff;}.cls-1{stroke:#fff;stroke-miterlimit:10;stroke-width:7px;}.cls-3{font-size:130.99px;font-family:HamburgHandLight, Hamburg Hand;}.cls-4{letter-spacing:-0.03em;}</style></defs><title>Artboard 1RoundText</title><polygon points="488.03 796.47 1505.03 796.47 1505.03 808.47 1000.03 1335.47 488.03 796.47"/><polygon class="cls-1" points="667.5 846.89 614.3 847 998.67 1251.58 1125.35 1120.01 877.43 847.05 825.42 847.05 1079.59 1117.03 1001.98 1197.89 667.5 846.89"/><path d="M1000,1324.16l494.52-518.69h-989Zm432.35-497.11-253.49,265.87L938.21,827.05Zm-653.22,0H886.29l266.43,293.36L998.58,1280.52,567.81,827.1l108.24-.22L1002,1169l50-52.07Z"/><polygon points="1268.78 889.55 1099.97 889.55 1181.91 980.65 1268.78 889.55"/><path class="cls-1" d="M1385.65,847.05H983.29l196,216.49Zm-70.16,22.5-134,140.53L1055.09,869.55Z"/><path class="cls-2" d="M676.05,826.88l-108.24.22,430.77,453.42,154.14-160.11L886.29,827.05H779.13L1052,1116.89,1002,1169Zm149.37,20.17h52l247.92,273L998.67,1251.58,614.3,847l53.2-.11,334.48,351,77.61-80.86Z"/><path class="cls-2" d="M1432.35,827.05H938.21l240.65,265.87Zm-46.7,20-206.41,216.49-196-216.49Z"/><path class="cls-2" d="M1315.49,869.55h-260.4l126.39,140.53Zm-46.71,20-86.87,91.1L1100,889.55Z"/><path d="M1512,790.47H488a7.5,7.5,0,0,0-5.43,12.67l512,537.07a7.51,7.51,0,0,0,10.86,0l512-537.07a7.5,7.5,0,0,0-5.43-12.67Zm-512,533.69L505.48,805.47h989Z"/><text class="cls-3" transform="translate(567.03 768.68)">UNITED <tspan class="cls-4" x="571.78" y="0">DA</tspan><tspan x="759.89" y="0">O</tspan></text></svg>